<?xml version="1.0" encoding="UTF-8" standalone="no"?>
<svg
   xmlns:dc="http://purl.org/dc/elements/1.1/"
   xmlns:cc="http://creativecommons.org/ns#"
   xmlns:rdf="http://www.w3.org/1999/02/22-rdf-syntax-ns#"
   xmlns:svg="http://www.w3.org/2000/svg"
   xmlns="http://www.w3.org/2000/svg"
   xmlns:sodipodi="http://sodipodi.sourceforge.net/DTD/sodipodi-0.dtd"
   xmlns:inkscape="http://www.inkscape.org/namespaces/inkscape"
   version="1.1"
   x="0px"
   y="0px"
   viewBox="0 0 90 112.5"
   enable-background="new 0 0 90 90"
   xml:space="preserve"
   id="svg4530"
   sodipodi:docname="noun_Refresh.svg"
   inkscape:version="0.92.4 (5da689c313, 2019-01-14)"><metadata
     id="metadata4536"><rdf:RDF><cc:Work
         rdf:about=""><dc:format>image/svg+xml</dc:format><dc:type
           rdf:resource="http://purl.org/dc/dcmitype/StillImage" /></cc:Work></rdf:RDF></metadata><defs
     id="defs4534" /><sodipodi:namedview
     pagecolor="#ffffff"
     bordercolor="#666666"
     borderopacity="1"
     objecttolerance="10"
     gridtolerance="10"
     guidetolerance="10"
     inkscape:pageopacity="0"
     inkscape:pageshadow="2"
     inkscape:window-width="1920"
     inkscape:window-height="1017"
     id="namedview4532"
     showgrid="false"
     inkscape:zoom="7.5377778"
     inkscape:cx="23.441922"
     inkscape:cy="56.25"
     inkscape:window-x="-8"
     inkscape:window-y="-8"
     inkscape:window-maximized="1"
     inkscape:current-layer="svg4530" /><path
     fill-rule="evenodd"
     clip-rule="evenodd"
     d="M52.037,14.755c-8.047-0.014-14.916,2.824-20.607,8.516  c-5.691,5.69-8.544,12.559-8.557,20.605c0,1.545,0.104,3.046,0.31,4.506l10.83-10.83c0.662-0.662,1.468-0.992,2.419-0.992  s1.756,0.33,2.419,0.992c0.662,0.662,0.991,1.467,0.991,2.418c0,0.951-0.329,1.756-0.991,2.418L23.865,57.373  c-0.097,0.11-0.207,0.214-0.33,0.311c-0.084,0.069-0.166,0.13-0.249,0.186c-0.054,0.043-0.118,0.082-0.185,0.125  c-0.372,0.233-0.793,0.386-1.26,0.454c-0.345,0.055-0.698,0.055-1.055,0c-0.607-0.096-1.151-0.352-1.634-0.765l-0.124-0.104  c-0.028-0.027-0.062-0.063-0.103-0.103L2.37,40.899c-0.661-0.661-1-1.466-1.013-2.417c0.013-0.951,0.353-1.756,1.013-2.418  c0.661-0.661,1.467-0.992,2.417-0.992c0.951,0,1.757,0.331,2.42,0.992l8.845,8.867c0-0.344-0.007-0.695-0.021-1.055  c0-9.948,3.521-18.429,10.562-25.442C33.608,11.42,42.089,7.913,52.037,7.913c9.922,0,18.402,3.507,25.443,10.521  C84.495,25.447,88,33.928,88,43.876v0.022c0,9.92-3.505,18.394-10.52,25.421c-7.041,7.016-15.521,10.528-25.443,10.542  c-0.922-0.014-1.832-0.048-2.728-0.104c-0.938-0.069-1.724-0.454-2.357-1.156c-0.619-0.718-0.896-1.544-0.825-2.48  c0.068-0.937,0.453-1.716,1.156-2.337c0.717-0.633,1.544-0.915,2.48-0.846c0.757,0.054,1.516,0.081,2.273,0.081  c8.046,0,14.917-2.845,20.607-8.535h-0.021c5.677-5.704,8.521-12.574,8.534-20.608c0-8.06-2.837-14.93-8.514-20.605  C66.954,17.579,60.083,14.741,52.037,14.755z"
     id="path4528"
     style="fill:#7fa5fa;fill-opacity:1" /></svg>